999
dxflib 3.17.0.0
  0
SECTION
  2
HEADER
  9
$ACADVER
  1
AC1015
  9
$HANDSEED
  5
FFFF
  9
$ANGBASE
 50
0.0
  9
$ANGDIR
 70
0
  9
$ATTMODE
 70
0
  9
$AUNITS
 70
0
  9
$AUPREC
 70
2
  9
$CECOLOR
 62
256
  9
$CELTSCALE
 40
1.0
  9
$CHAMFERA
 40
0.0
  9
$CHAMFERB
 40
0.0
  9
$CHAMFERC
 40
0.0
  9
$CHAMFERD
 40
0.0
  9
$CMLJUST
 70
0
  9
$CMLSCALE
 40
20.0
  9
$DIMADEC
 70
0
  9
$DIMALT
 70
0
  9
$DIMALTD
 70
3
  9
$DIMALTF
 40
0.03937
  9
$DIMALTRND
 40
0.0
  9
$DIMALTTD
 70
3
  9
$DIMALTTZ
 70
0
  9
$DIMALTU
 70
2
  9
$DIMALTZ
 70
0
  9
$DIMAPOST
  1

  9
$DIMASZ
 40
2.5
  9
$DIMATFIT
 70
3
  9
$DIMAUNIT
 70
0
  9
$DIMAZIN
 70
0
  9
$DIMBLK
  1

  9
$DIMBLK1
  1

  9
$DIMBLK2
  1

  9
$DIMCEN
 40
2.5
  9
$DIMCLRD
 70
0
  9
$DIMCLRE
 70
0
  9
$DIMCLRT
 70
0
  9
$DIMDEC
 70
2
  9
$DIMDLE
 40
0.0
  9
$DIMDLI
 40
3.75
  9
$DIMDSEP
 70
44
  9
$DIMEXE
 40
1.25
  9
$DIMEXO
 40
0.625
  9
$DIMFRAC
 70
0
  9
$DIMGAP
 40
0.625
  9
$DIMJUST
 70
0
  9
$DIMLDRBLK
  1
STANDARD
  9
$DIMLFAC
 40
1.0
  9
$DIMLIM
 70
0
  9
$DIMLUNIT
 70
2
  9
$DIMLWD
 70
-2
  9
$DIMLWE
 70
-2
  9
$DIMPOST
  1

  9
$DIMRND
 40
0.0
  9
$DIMSAH
 70
0
  9
$DIMSCALE
 40
1.0
  9
$DIMSD1
 70
0
  9
$DIMSD2
 70
0
  9
$DIMSE1
 70
0
  9
$DIMSE2
 70
0
  9
$DIMSOXD
 70
0
  9
$DIMTAD
 70
1
  9
$DIMTDEC
 70
2
  9
$DIMTFAC
 40
1.0
  9
$DIMTIH
 70
0
  9
$DIMTIX
 70
0
  9
$DIMTM
 40
0.0
  9
$DIMTOFL
 70
1
  9
$DIMTOH
 70
0
  9
$DIMTOL
 70
0
  9
$DIMTOLJ
 70
0
  9
$DIMTP
 40
0.0
  9
$DIMTSZ
 40
0.0
  9
$DIMTVP
 40
0.0
  9
$DIMTXSTY
  7
STANDARD
  9
$DIMTXT
 40
4
  9
$DIMTZIN
 70
8
  9
$DIMUPT
 70
0
  9
$DIMZIN
 70
8
  9
$DISPSILH
 70
0
  9
$DWGCODEPAGE
  3
ANSI_1252
  9
$ELEVATION
 40
0.0
  9
$EXTMAX
 10
805.0
 20
137.4224734312593057
 30
0.0
  9
$EXTMIN
 10
-90.0
 20
-76.2719710131869846
 30
0.0
  9
$FILLETRAD
 40
0.0
  9
$FILLMODE
 70
1
  9
$INSBASE
 10
0.0
 20
0.0
 30
0.0
  9
$INSUNITS
 70
4
  9
$LIMCHECK
 70
0
  9
$LIMMAX
 10
420.0
 20
297.0
  9
$LIMMIN
 10
0.0
 20
0.0
  9
$LTSCALE
 40
1.0
  9
$LUNITS
 70
2
  9
$LUPREC
 70
4
  9
$MAXACTVP
 70
64
  9
$MEASUREMENT
 70
1
  9
$MIRRTEXT
 70
0
  9
$ORTHOMODE
 70
0
  9
$PDMODE
 70
34
  9
$PDSIZE
 40
0.0
  9
$PELEVATION
 40
0.0
  9
$PEXTMAX
 10
0.0
 20
0.0
 30
0.0
  9
$PEXTMIN
 10
0.0
 20
0.0
 30
0.0
  9
$PINSBASE
 10
0.0
 20
0.0
 30
0.0
  9
$PLIMCHECK
 70
0
  9
$PLIMMAX
 10
0.000000297
 20
0.00000042
  9
$PLIMMIN
 10
0.0
 20
0.0
  9
$PLINEGEN
 70
0
  9
$PLINEWID
 40
0.0
  9
$PROXYGRAPHICS
 70
1
  9
$PSLTSCALE
 70
1
  9
$PUCSNAME
  2

  9
$PUCSORG
 10
0.0
 20
0.0
 30
0.0
  9
$PUCSXDIR
 10
1.0
 20
0.0
 30
0.0
  9
$PUCSYDIR
 10
0.0
 20
1.0
 30
0.0
  9
$QTEXTMODE
 70
0
  9
$REGENMODE
 70
1
  9
$SHADEDGE
 70
3
  9
$SHADEDIF
 70
70
  9
$SKETCHINC
 40
1.0
  9
$SKPOLY
 70
0
  9
$SPLFRAME
 70
0
  9
$SPLINESEGS
 70
8
  9
$SPLINETYPE
 70
2
  9
$SURFTAB1
 70
6
  9
$SURFTAB2
 70
6
  9
$SURFTYPE
 70
6
  9
$SURFU
 70
6
  9
$SURFV
 70
6
  9
$TEXTSIZE
 40
2.5
  9
$TEXTSTYLE
  7
STANDARD
  9
$THICKNESS
 40
0.0
  9
$TILEMODE
 70
1
  9
$TRACEWID
 40
15.6799999999999997
  9
$TREEDEPTH
 70
3020
  9
$UCSNAME
  2

  9
$UCSORG
 10
0.0
 20
0.0
 30
0.0
  9
$UCSXDIR
 10
1.0
 20
0.0
 30
0.0
  9
$UCSYDIR
 10
0.0
 20
1.0
 30
0.0
  9
$UNITMODE
 70
0
  9
$USERI1
 70
0
  9
$USERI2
 70
0
  9
$USERI3
 70
0
  9
$USERI4
 70
0
  9
$USERI5
 70
0
  9
$USERR1
 40
0.0
  9
$USERR2
 40
0.0
  9
$USERR3
 40
0.0
  9
$USERR4
 40
0.0
  9
$USERR5
 40
0.0
  9
$USRTIMER
 70
1
  9
$VISRETAIN
 70
1
  0
ENDSEC
  0
SECTION
  2
TABLES
  0
TABLE
  2
VPORT
  5
8
100
AcDbSymbolTable
 70
1
  0
VPORT
  5
30
100
AcDbSymbolTableRecord
100
AcDbViewportTableRecord
  2
*Active
 70
0
 10
0.0
 20
0.0
 11
1.0
 21
1.0
 12
286.3055555555554861
 22
148.5
 13
0.0
 23
0.0
 14
10.0
 24
10.0
 15
10.0
 25
10.0
 16
0.0
 26
0.0
 36
1.0
 17
0.0
 27
0.0
 37
0.0
 40
297.0
 41
1.92798353909465
 42
50.0
 43
0.0
 44
0.0
 50
0.0
 51
0.0
 71
0
 72
100
 73
1
 74
3
 75
1
 76
1
 77
0
 78
0
281
0
 65
1
110
0.0
120
0.0
130
0.0
111
1.0
121
0.0
131
0.0
112
0.0
122
1.0
132
0.0
 79
0
146
0.0
  0
ENDTAB
  0
TABLE
  2
LTYPE
  5
5
100
AcDbSymbolTable
 70
47
  0
LTYPE
  5
16
100
AcDbSymbolTableRecord
100
AcDbLinetypeTableRecord
  2
Continuous
 70
0
  3
Solid line
 72
65
 73
0
 40
0.0
  0
LTYPE
  5
14
100
AcDbSymbolTableRecord
100
AcDbLinetypeTableRecord
  2
ByBlock
 70
0
  3

 72
65
 73
0
 40
0.0
  0
LTYPE
  5
31
100
AcDbSymbolTableRecord
100
AcDbLinetypeTableRecord
  2
DASHED
 70
0
  3
Dashed _ _ _ _ _ _ _ _ _ _ _ _ _ _ _ _ _
 72
65
 73
2
 40
19.0499999999999972
 49
12.6999999999999993
 74
0
 49
-6.3499999999999996
 74
0
  0
LTYPE
  5
32
100
AcDbSymbolTableRecord
100
AcDbLinetypeTableRecord
  2
ACAD_ISO14W100
 70
0
  3
ISO dash triple-dot __ . . . __ . . . __ . . . _
 72
65
 73
8
 40
24.0
 49
12.0
 74
0
 49
-3.0
 74
0
 49
0.0
 74
0
 49
-3.0
 74
0
 49
0.0
 74
0
 49
-3.0
 74
0
 49
0.0
 74
0
 49
-3.0
 74
0
  0
LTYPE
  5
33
100
AcDbSymbolTableRecord
100
AcDbLinetypeTableRecord
  2
DIVIDE2
 70
0
  3
Divide (.5x) __..__..__..__..__..__..__..__.._
 72
65
 73
6
 40
15.8749999999999982
 49
6.3499999999999996
 74
0
 49
-3.125
 74
0
 49
0.1
 74
0
 49
-3.0750000000000002
 74
0
 49
0.1
 74
0
 49
-3.125
 74
0
  0
LTYPE
  5
34
100
AcDbSymbolTableRecord
100
AcDbLinetypeTableRecord
  2
PHANTOM2
 70
0
  3
Phantom (.5x) ___ _ _ ___ _ _ ___ _ _ ___ _ _
 72
65
 73
6
 40
31.7500000000000036
 49
15.875
 74
0
 49
-3.1749999999999998
 74
0
 49
3.1749999999999998
 74
0
 49
-3.1749999999999998
 74
0
 49
3.1749999999999998
 74
0
 49
-3.1749999999999998
 74
0
  0
LTYPE
  5
35
100
AcDbSymbolTableRecord
100
AcDbLinetypeTableRecord
  2
DASHED2
 70
0
  3
Dashed (.5x) _ _ _ _ _ _ _ _ _ _ _ _ _ _ _ _ _
 72
65
 73
2
 40
9.5249999999999986
 49
6.3499999999999996
 74
0
 49
-3.1749999999999998
 74
0
  0
LTYPE
  5
36
100
AcDbSymbolTableRecord
100
AcDbLinetypeTableRecord
  2
CENTERX2
 70
0
  3
Center (2x) ________  __  ________  __  _____
 72
65
 73
4
 40
101.6000000000000085
 49
63.5
 74
0
 49
-12.6999999999999993
 74
0
 49
12.6999999999999993
 74
0
 49
-12.6999999999999993
 74
0
  0
LTYPE
  5
37
100
AcDbSymbolTableRecord
100
AcDbLinetypeTableRecord
  2
ACAD_ISO12W100
 70
0
  3
ISO dash double-dot __ . . __ . . __ . . __ . . 
 72
65
 73
6
 40
21.0
 49
12.0
 74
0
 49
-3.0
 74
0
 49
0.0
 74
0
 49
-3.0
 74
0
 49
0.0
 74
0
 49
-3.0
 74
0
  0
LTYPE
  5
38
100
AcDbSymbolTableRecord
100
AcDbLinetypeTableRecord
  2
CENTER2
 70
0
  3
Center (.5x) ___ _ ___ _ ___ _ ___ _ ___ _ ___
 72
65
 73
4
 40
28.5750000000000028
 49
19.0500000000000007
 74
0
 49
-3.1749999999999998
 74
0
 49
3.1749999999999998
 74
0
 49
-3.1749999999999998
 74
0
  0
LTYPE
  5
39
100
AcDbSymbolTableRecord
100
AcDbLinetypeTableRecord
  2
ACAD_ISO04W100
 70
0
  3
ISO long-dash dot ____ . ____ . ____ . ____ . _
 72
65
 73
4
 40
30.0
 49
24.0
 74
0
 49
-3.0
 74
0
 49
0.0
 74
0
 49
-3.0
 74
0
  0
LTYPE
  5
3A
100
AcDbSymbolTableRecord
100
AcDbLinetypeTableRecord
  2
ACAD_ISO02W100
 70
0
  3
ISO dash __ __ __ __ __ __ __ __ __ __ __ __ __
 72
65
 73
2
 40
15.0
 49
12.0
 74
0
 49
-3.0
 74
0
  0
LTYPE
  5
3B
100
AcDbSymbolTableRecord
100
AcDbLinetypeTableRecord
  2
BORDERTINY
 70
0
  3
Border (.15x) __.__.__.__.__.__.__.__.__.__.__.
 72
65
 73
6
 40
6.6674999999999995
 49
1.905
 74
0
 49
-0.9525
 74
0
 49
1.905
 74
0
 49
-0.9025
 74
0
 49
0.1
 74
0
 49
-0.9025
 74
0
  0
LTYPE
  5
3C
100
AcDbSymbolTableRecord
100
AcDbLinetypeTableRecord
  2
DIVIDEX2
 70
0
  3
Divide (2x) ________  .  .  ________  .  .  _
 72
65
 73
6
 40
63.5
 49
25.3999999999999986
 74
0
 49
-12.6499999999999986
 74
0
 49
0.1
 74
0
 49
-12.5999999999999979
 74
0
 49
0.1
 74
0
 49
-12.6499999999999986
 74
0
  0
LTYPE
  5
3D
100
AcDbSymbolTableRecord
100
AcDbLinetypeTableRecord
  2
BORDERX2
 70
0
  3
Border (2x) ____  ____  .  ____  ____  .  ___
 72
65
 73
6
 40
88.8999999999999773
 49
25.3999999999999986
 74
0
 49
-12.6999999999999993
 74
0
 49
25.3999999999999986
 74
0
 49
-12.6499999999999986
 74
0
 49
0.1
 74
0
 49
-12.6499999999999986
 74
0
  0
LTYPE
  5
3E
100
AcDbSymbolTableRecord
100
AcDbLinetypeTableRecord
  2
DASHDOTX2
 70
0
  3
Dash dot (2x) ____  .  ____  .  ____  .  ___
 72
65
 73
4
 40
50.7999999999999972
 49
25.3999999999999986
 74
0
 49
-12.6499999999999986
 74
0
 49
0.1
 74
0
 49
-12.6499999999999986
 74
0
  0
LTYPE
  5
3F
100
AcDbSymbolTableRecord
100
AcDbLinetypeTableRecord
  2
HIDDEN
 70
0
  3
Hidden __ __ __ __ __ __ __ __ __ __ __ __ __ __
 72
65
 73
2
 40
9.5249999999999986
 49
6.3499999999999996
 74
0
 49
-3.1749999999999998
 74
0
  0
LTYPE
  5
40
100
AcDbSymbolTableRecord
100
AcDbLinetypeTableRecord
  2
CENTER
 70
0
  3
Center ____ _ ____ _ ____ _ ____ _ ____ _ ____
 72
65
 73
4
 40
50.8000000000000043
 49
31.75
 74
0
 49
-6.3499999999999996
 74
0
 49
6.3499999999999996
 74
0
 49
-6.3499999999999996
 74
0
  0
LTYPE
  5
41
100
AcDbSymbolTableRecord
100
AcDbLinetypeTableRecord
  2
BORDER2
 70
0
  3
Border (.5x) __.__.__.__.__.__.__.__.__.__.__.
 72
65
 73
6
 40
22.2250000000000014
 49
6.3499999999999996
 74
0
 49
-3.1749999999999998
 74
0
 49
6.3499999999999996
 74
0
 49
-3.125
 74
0
 49
0.1
 74
0
 49
-3.125
 74
0
  0
LTYPE
  5
42
100
AcDbSymbolTableRecord
100
AcDbLinetypeTableRecord
  2
DASHDOT2
 70
0
  3
Dash dot (.5x) _._._._._._._._._._._._._._._.
 72
65
 73
4
 40
12.6999999999999993
 49
6.3499999999999996
 74
0
 49
-3.125
 74
0
 49
0.1
 74
0
 49
-3.125
 74
0
  0
LTYPE
  5
43
100
AcDbSymbolTableRecord
100
AcDbLinetypeTableRecord
  2
BORDER
 70
0
  3
Border __ __ . __ __ . __ __ . __ __ . __ __ .
 72
65
 73
6
 40
44.4499999999999957
 49
12.6999999999999993
 74
0
 49
-6.3499999999999996
 74
0
 49
12.6999999999999993
 74
0
 49
-6.2999999999999998
 74
0
 49
0.1
 74
0
 49
-6.2999999999999998
 74
0
  0
LTYPE
  5
44
100
AcDbSymbolTableRecord
100
AcDbLinetypeTableRecord
  2
DOTX2
 70
0
  3
Dot (2x) .  .  .  .  .  .  .  .  .  .  .  .  .
 72
65
 73
2
 40
12.6999999999999993
 49
0.1
 74
0
 49
-12.5999999999999996
 74
0
  0
LTYPE
  5
45
100
AcDbSymbolTableRecord
100
AcDbLinetypeTableRecord
  2
DASHDOT
 70
0
  3
Dash dot __ . __ . __ . __ . __ . __ . __ . __
 72
65
 73
4
 40
25.4000000000000021
 49
12.6999999999999993
 74
0
 49
-6.2999999999999998
 74
0
 49
0.1
 74
0
 49
-6.2999999999999998
 74
0
  0
LTYPE
  5
46
100
AcDbSymbolTableRecord
100
AcDbLinetypeTableRecord
  2
DOT2
 70
0
  3
Dot (.5x) .....................................
 72
65
 73
2
 40
3.1749999999999998
 49
0.1
 74
0
 49
-3.0749999999999997
 74
0
  0
LTYPE
  5
47
100
AcDbSymbolTableRecord
100
AcDbLinetypeTableRecord
  2
ACAD_ISO11W100
 70
0
  3
ISO double-dash dot __ __ . __ __ . __ __ . __ _
 72
65
 73
6
 40
33.0
 49
12.0
 74
0
 49
-3.0
 74
0
 49
12.0
 74
0
 49
-3.0
 74
0
 49
0.0
 74
0
 49
-3.0
 74
0
  0
LTYPE
  5
48
100
AcDbSymbolTableRecord
100
AcDbLinetypeTableRecord
  2
ACAD_ISO13W100
 70
0
  3
ISO double-dash double-dot __ __ . . __ __ . . _
 72
65
 73
8
 40
36.0
 49
12.0
 74
0
 49
-3.0
 74
0
 49
12.0
 74
0
 49
-3.0
 74
0
 49
0.0
 74
0
 49
-3.0
 74
0
 49
0.0
 74
0
 49
-3.0
 74
0
  0
LTYPE
  5
49
100
AcDbSymbolTableRecord
100
AcDbLinetypeTableRecord
  2
HIDDEN2
 70
0
  3
Hidden (.5x) _ _ _ _ _ _ _ _ _ _ _ _ _ _ _ _ _ 
 72
65
 73
2
 40
4.7624999999999993
 49
3.1749999999999998
 74
0
 49
-1.5874999999999999
 74
0
  0
LTYPE
  5
4A
100
AcDbSymbolTableRecord
100
AcDbLinetypeTableRecord
  2
DIVIDETINY
 70
0
  3
Divide (.15x) __..__..__..__..__..__..__..__.._
 72
65
 73
6
 40
4.7625000000000002
 49
1.905
 74
0
 49
-0.9025
 74
0
 49
0.1
 74
0
 49
-0.8524999999999999
 74
0
 49
0.1
 74
0
 49
-0.9025
 74
0
  0
LTYPE
  5
4B
100
AcDbSymbolTableRecord
100
AcDbLinetypeTableRecord
  2
ACAD_ISO03W100
 70
0
  3
ISO dash space __    __    __    __    __    __
 72
65
 73
2
 40
30.0
 49
12.0
 74
0
 49
-18.0
 74
0
  0
LTYPE
  5
4C
100
AcDbSymbolTableRecord
100
AcDbLinetypeTableRecord
  2
ACAD_ISO08W100
 70
0
  3
ISO long-dash short-dash ____ __ ____ __ ____ _
 72
65
 73
4
 40
36.0
 49
24.0
 74
0
 49
-3.0
 74
0
 49
6.0
 74
0
 49
-3.0
 74
0
  0
LTYPE
  5
4D
100
AcDbSymbolTableRecord
100
AcDbLinetypeTableRecord
  2
DOT
 70
0
  3
Dot . . . . . . . . . . . . . . . . . . . . . .
 72
65
 73
2
 40
6.3499999999999996
 49
0.1
 74
0
 49
-6.25
 74
0
  0
LTYPE
  5
4E
100
AcDbSymbolTableRecord
100
AcDbLinetypeTableRecord
  2
HIDDENX2
 70
0
  3
Hidden (2x) ____ ____ ____ ____ ____ ____ ____ 
 72
65
 73
2
 40
19.0499999999999972
 49
12.6999999999999993
 74
0
 49
-6.3499999999999996
 74
0
  0
LTYPE
  5
4F
100
AcDbSymbolTableRecord
100
AcDbLinetypeTableRecord
  2
DASHDOTTINY
 70
0
  3
Dash dot (.15x) _._._._._._._._._._._._._._._.
 72
65
 73
4
 40
3.8100000000000001
 49
1.905
 74
0
 49
-0.9025
 74
0
 49
0.1
 74
0
 49
-0.9025
 74
0
  0
LTYPE
  5
50
100
AcDbSymbolTableRecord
100
AcDbLinetypeTableRecord
  2
DASHEDX2
 70
0
  3
Dashed (2x) ____  ____  ____  ____  ____  ___
 72
65
 73
2
 40
38.0999999999999943
 49
25.3999999999999986
 74
0
 49
-12.6999999999999993
 74
0
  0
LTYPE
  5
51
100
AcDbSymbolTableRecord
100
AcDbLinetypeTableRecord
  2
ACAD_ISO05W100
 70
0
  3
ISO long-dash double-dot ____ .. ____ .. ____ . 
 72
65
 73
6
 40
33.0
 49
24.0
 74
0
 49
-3.0
 74
0
 49
0.0
 74
0
 49
-3.0
 74
0
 49
0.0
 74
0
 49
-3.0
 74
0
  0
LTYPE
  5
15
100
AcDbSymbolTableRecord
100
AcDbLinetypeTableRecord
  2
ByLayer
 70
0
  3

 72
65
 73
0
 40
0.0
  0
LTYPE
  5
52
100
AcDbSymbolTableRecord
100
AcDbLinetypeTableRecord
  2
DIVIDE
 70
0
  3
Divide ____ . . ____ . . ____ . . ____ . . ____
 72
65
 73
6
 40
31.7500000000000036
 49
12.6999999999999993
 74
0
 49
-6.2999999999999998
 74
0
 49
0.1
 74
0
 49
-6.25
 74
0
 49
0.1
 74
0
 49
-6.2999999999999998
 74
0
  0
LTYPE
  5
53
100
AcDbSymbolTableRecord
100
AcDbLinetypeTableRecord
  2
ACAD_ISO10W100
 70
0
  3
ISO dash dot __ . __ . __ . __ . __ . __ . __ . 
 72
65
 73
4
 40
18.0
 49
12.0
 74
0
 49
-3.0
 74
0
 49
0.0
 74
0
 49
-3.0
 74
0
  0
LTYPE
  5
54
100
AcDbSymbolTableRecord
100
AcDbLinetypeTableRecord
  2
PHANTOM
 70
0
  3
Phantom ______  __  __  ______  __  __  ______ 
 72
65
 73
6
 40
63.5000000000000071
 49
31.75
 74
0
 49
-6.3499999999999996
 74
0
 49
6.3499999999999996
 74
0
 49
-6.3499999999999996
 74
0
 49
6.3499999999999996
 74
0
 49
-6.3499999999999996
 74
0
  0
LTYPE
  5
55
100
AcDbSymbolTableRecord
100
AcDbLinetypeTableRecord
  2
PHANTOMX2
 70
0
  3
Phantom (2x) ____________    ____    ____   _
 72
65
 73
6
 40
127.0000000000000142
 49
63.5
 74
0
 49
-12.6999999999999993
 74
0
 49
12.6999999999999993
 74
0
 49
-12.6999999999999993
 74
0
 49
12.6999999999999993
 74
0
 49
-12.6999999999999993
 74
0
  0
LTYPE
  5
56
100
AcDbSymbolTableRecord
100
AcDbLinetypeTableRecord
  2
ACAD_ISO07W100
 70
0
  3
ISO dot . . . . . . . . . . . . . . . . . . . . 
 72
65
 73
2
 40
3.0
 49
0.0
 74
0
 49
-3.0
 74
0
  0
LTYPE
  5
57
100
AcDbSymbolTableRecord
100
AcDbLinetypeTableRecord
  2
CENTERTINY
 70
0
  3
Center (.15x) ___ _ ___ _ ___ _ ___ _ ___ _ ___
 72
65
 73
4
 40
7.6199999999999992
 49
4.7625000000000002
 74
0
 49
-0.9525
 74
0
 49
0.9525
 74
0
 49
-0.9525
 74
0
  0
LTYPE
  5
58
100
AcDbSymbolTableRecord
100
AcDbLinetypeTableRecord
  2
ACAD_ISO09W100
 70
0
  3
ISO long-dash double-short-dash ____ __ __ ____
 72
65
 73
6
 40
45.0
 49
24.0
 74
0
 49
-3.0
 74
0
 49
6.0
 74
0
 49
-3.0
 74
0
 49
6.0
 74
0
 49
-3.0
 74
0
  0
LTYPE
  5
59
100
AcDbSymbolTableRecord
100
AcDbLinetypeTableRecord
  2
DOTTINY
 70
0
  3
Dot (.15x) .....................................
 72
65
 73
2
 40
0.9525
 49
0.1
 74
0
 49
-0.8525
 74
0
  0
LTYPE
  5
5A
100
AcDbSymbolTableRecord
100
AcDbLinetypeTableRecord
  2
DASHEDTINY
 70
0
  3
Dashed (.15x) _ _ _ _ _ _ _ _ _ _ _ _ _ _ _ _ _
 72
65
 73
2
 40
2.8574999999999999
 49
1.905
 74
0
 49
-0.9525
 74
0
  0
LTYPE
  5
5B
100
AcDbSymbolTableRecord
100
AcDbLinetypeTableRecord
  2
ACAD_ISO15W100
 70
0
  3
ISO double-dash triple-dot __ __ . . . __ __ . .
 72
65
 73
10
 40
39.0
 49
12.0
 74
0
 49
-3.0
 74
0
 49
12.0
 74
0
 49
-3.0
 74
0
 49
0.0
 74
0
 49
-3.0
 74
0
 49
0.0
 74
0
 49
-3.0
 74
0
 49
0.0
 74
0
 49
-3.0
 74
0
  0
LTYPE
  5
5C
100
AcDbSymbolTableRecord
100
AcDbLinetypeTableRecord
  2
ACAD_ISO06W100
 70
0
  3
ISO long-dash triple-dot ____ ... ____ ... ____
 72
65
 73
8
 40
36.0
 49
24.0
 74
0
 49
-3.0
 74
0
 49
0.0
 74
0
 49
-3.0
 74
0
 49
0.0
 74
0
 49
-3.0
 74
0
 49
0.0
 74
0
 49
-3.0
 74
0
  0
ENDTAB
  0
TABLE
  2
LAYER
  5
2
100
AcDbSymbolTable
 70
2
  0
LAYER
  5
10
100
AcDbSymbolTableRecord
100
AcDbLayerTableRecord
  2
0
 70
0
 62
7
420
16777215
  6
Continuous
370
0
390
F
  0
LAYER
  5
5D
100
AcDbSymbolTableRecord
100
AcDbLayerTableRecord
  2
text
 70
0
 62
7
420
16777215
  6
Continuous
370
0
390
F
  0
ENDTAB
  0
TABLE
  2
STYLE
  5
3
100
AcDbSymbolTable
 70
22
  0
STYLE
  5
5E
100
AcDbSymbolTableRecord
100
AcDbTextStyleTableRecord
  2
Standard
 70
0
 40
0.0
 41
1.0
 50
0.0
 71
0
 42
2.5
  3

  4

1001
ACAD
1000
txt
1071
0
  0
STYLE
  5
5F
100
AcDbSymbolTableRecord
100
AcDbTextStyleTableRecord
  2
textstyle0
 70
0
 40
0.0
 41
1.0
 50
0.0
 71
0
 42
10.0
  3

  4

1001
ACAD
1000
Liberation Sans
1071
0
  0
STYLE
  5
60
100
AcDbSymbolTableRecord
100
AcDbTextStyleTableRecord
  2
textstyle1
 70
0
 40
0.0
 41
1.0
 50
0.0
 71
0
 42
8.0
  3

  4

1001
ACAD
1000
Liberation Sans
1071
0
  0
STYLE
  5
61
100
AcDbSymbolTableRecord
100
AcDbTextStyleTableRecord
  2
textstyle2
 70
0
 40
0.0
 41
1.0
 50
0.0
 71
0
 42
8.0
  3

  4

1001
ACAD
1000
iso
1071
0
  0
STYLE
  5
62
100
AcDbSymbolTableRecord
100
AcDbTextStyleTableRecord
  2
textstyle3
 70
0
 40
0.0
 41
1.0
 50
0.0
 71
0
 42
8.0
  3

  4

1001
ACAD
1000
iso
1071
0
  0
STYLE
  5
63
100
AcDbSymbolTableRecord
100
AcDbTextStyleTableRecord
  2
textstyle4
 70
0
 40
0.0
 41
1.0
 50
0.0
 71
0
 42
8.0
  3

  4

1001
ACAD
1000
Liberation Sans
1071
0
  0
STYLE
  5
64
100
AcDbSymbolTableRecord
100
AcDbTextStyleTableRecord
  2
textstyle5
 70
0
 40
0.0
 41
1.0
 50
0.0
 71
0
 42
8.0
  3

  4

1001
ACAD
1000
iso
1071
0
  0
STYLE
  5
65
100
AcDbSymbolTableRecord
100
AcDbTextStyleTableRecord
  2
textstyle6
 70
0
 40
0.0
 41
1.0
 50
0.0
 71
0
 42
8.0
  3

  4

1001
ACAD
1000
Liberation Sans
1071
0
  0
STYLE
  5
66
100
AcDbSymbolTableRecord
100
AcDbTextStyleTableRecord
  2
textstyle7
 70
0
 40
0.0
 41
1.0
 50
0.0
 71
0
 42
8.0
  3

  4

1001
ACAD
1000
Liberation Sans
1071
0
  0
STYLE
  5
67
100
AcDbSymbolTableRecord
100
AcDbTextStyleTableRecord
  2
textstyle8
 70
0
 40
0.0
 41
1.0
 50
0.0
 71
0
 42
8.0
  3

  4

1001
ACAD
1000
Liberation Sans
1071
0
  0
STYLE
  5
68
100
AcDbSymbolTableRecord
100
AcDbTextStyleTableRecord
  2
textstyle9
 70
0
 40
0.0
 41
1.0
 50
0.0
 71
0
 42
8.0
  3

  4

1001
ACAD
1000
Liberation Sans
1071
0
  0
STYLE
  5
69
100
AcDbSymbolTableRecord
100
AcDbTextStyleTableRecord
  2
textstyle10
 70
0
 40
0.0
 41
1.0
 50
0.0
 71
0
 42
8.0
  3

  4

1001
ACAD
1000
Liberation Sans
1071
0
  0
STYLE
  5
6A
100
AcDbSymbolTableRecord
100
AcDbTextStyleTableRecord
  2
textstyle11
 70
0
 40
0.0
 41
1.0
 50
0.0
 71
0
 42
8.0
  3

  4

1001
ACAD
1000
Liberation Sans
1071
0
  0
STYLE
  5
6B
100
AcDbSymbolTableRecord
100
AcDbTextStyleTableRecord
  2
textstyle12
 70
0
 40
0.0
 41
1.0
 50
0.0
 71
0
 42
8.0
  3

  4

1001
ACAD
1000
Liberation Sans
1071
0
  0
STYLE
  5
6C
100
AcDbSymbolTableRecord
100
AcDbTextStyleTableRecord
  2
textstyle13
 70
0
 40
0.0
 41
1.0
 50
0.0
 71
0
 42
8.0
  3

  4

1001
ACAD
1000
Liberation Sans
1071
0
  0
STYLE
  5
6D
100
AcDbSymbolTableRecord
100
AcDbTextStyleTableRecord
  2
textstyle14
 70
0
 40
0.0
 41
1.0
 50
0.0
 71
0
 42
8.0
  3

  4

1001
ACAD
1000
Liberation Sans
1071
0
  0
STYLE
  5
6E
100
AcDbSymbolTableRecord
100
AcDbTextStyleTableRecord
  2
textstyle15
 70
0
 40
0.0
 41
1.0
 50
0.0
 71
0
 42
8.0
  3

  4

1001
ACAD
1000
iso
1071
0
  0
STYLE
  5
6F
100
AcDbSymbolTableRecord
100
AcDbTextStyleTableRecord
  2
textstyle16
 70
0
 40
0.0
 41
1.0
 50
0.0
 71
0
 42
8.0
  3

  4

1001
ACAD
1000
iso
1071
0
  0
STYLE
  5
70
100
AcDbSymbolTableRecord
100
AcDbTextStyleTableRecord
  2
textstyle17
 70
0
 40
0.0
 41
1.0
 50
0.0
 71
0
 42
8.0
  3

  4

1001
ACAD
1000
iso
1071
0
  0
STYLE
  5
71
100
AcDbSymbolTableRecord
100
AcDbTextStyleTableRecord
  2
textstyle18
 70
0
 40
0.0
 41
1.0
 50
0.0
 71
0
 42
8.0
  3

  4

1001
ACAD
1000
iso
1071
0
  0
STYLE
  5
72
100
AcDbSymbolTableRecord
100
AcDbTextStyleTableRecord
  2
textstyle19
 70
0
 40
0.0
 41
1.0
 50
0.0
 71
0
 42
8.0
  3

  4

1001
ACAD
1000
iso
1071
0
  0
STYLE
  5
73
100
AcDbSymbolTableRecord
100
AcDbTextStyleTableRecord
  2
textstyle20
 70
0
 40
0.0
 41
1.0
 50
0.0
 71
0
 42
10.0
  3

  4

1001
ACAD
1000
Liberation Sans
1071
0
  0
ENDTAB
  0
TABLE
  2
VIEW
  5
6
100
AcDbSymbolTable
 70
0
  0
ENDTAB
  0
TABLE
  2
UCS
  5
7
100
AcDbSymbolTable
 70
0
  0
ENDTAB
  0
TABLE
  2
APPID
  5
9
100
AcDbSymbolTable
 70
1
  0
APPID
  5
12
100
AcDbSymbolTableRecord
100
AcDbRegAppTableRecord
  2
ACAD
 70
0
  0
APPID
  5
74
100
AcDbSymbolTableRecord
100
AcDbRegAppTableRecord
  2
QCAD
 70
0
  0
ENDTAB
  0
TABLE
  2
DIMSTYLE
  5
A
100
AcDbSymbolTable
 70
1
100
AcDbDimStyleTable
 71
0
  0
DIMSTYLE
105
27
100
AcDbSymbolTableRecord
100
AcDbDimStyleTableRecord
  2
Standard
 41
2.5
 42
0.625
 43
3.75
 44
1.25
 70
0
 73
0
 74
0
 77
1
 78
8
140
4.0
141
2.5
143
0.03937007874016
147
0.625
171
3
172
1
271
2
272
2
274
3
278
44
283
0
284
8
340
5E
  0
ENDTAB
  0
TABLE
  2
BLOCK_RECORD
  5
1
100
AcDbSymbolTable
 70
1
  0
BLOCK_RECORD
  5
1F
100
AcDbSymbolTableRecord
100
AcDbBlockTableRecord
  2
*Model_Space
340
22
  0
BLOCK_RECORD
  5
1B
100
AcDbSymbolTableRecord
100
AcDbBlockTableRecord
  2
*Paper_Space
340
1E
  0
BLOCK_RECORD
  5
23
100
AcDbSymbolTableRecord
100
AcDbBlockTableRecord
  2
*Paper_Space0
340
26
  0
ENDTAB
  0
ENDSEC
  0
SECTION
  2
BLOCKS
  0
BLOCK
  5
20
100
AcDbEntity
  8
0
100
AcDbBlockBegin
  2
*Model_Space
 70
0
 10
0.0
 20
0.0
 30
0.0
  3
*Model_Space
  1

  0
ENDBLK
  5
21
100
AcDbEntity
  8
0
100
AcDbBlockEnd
  0
BLOCK
  5
1C
100
AcDbEntity
 67
1
  8
0
100
AcDbBlockBegin
  2
*Paper_Space
 70
0
 10
0.0
 20
0.0
 30
0.0
  3
*Paper_Space
  1

  0
ENDBLK
  5
1D
100
AcDbEntity
 67
1
  8
0
100
AcDbBlockEnd
  0
BLOCK
  5
24
100
AcDbEntity
  8
0
100
AcDbBlockBegin
  2
*Paper_Space0
 70
0
 10
0.0
 20
0.0
 30
0.0
  3
*Paper_Space0
  1

  0
ENDBLK
  5
25
100
AcDbEntity
  8
0
100
AcDbBlockEnd
  0
ENDSEC
  0
SECTION
  2
ENTITIES
  0
LWPOLYLINE
  5
75
100
AcDbEntity
  8
0
 62
256
370
-1
 48
1.0
  6
ByLayer
100
AcDbPolyline
 90
4
 70
1
 10
0.0
 20
4.9780289868130154
 10
15.0
 20
4.9780289868130154
 10
15.0
 20
-5.0219710131869846
 10
0.0
 20
-5.0219710131869846
  0
LWPOLYLINE
  5
76
100
AcDbEntity
  8
0
 62
256
370
-1
 48
1.0
  6
ByLayer
100
AcDbPolyline
 90
4
 70
1
 10
-0.0000000000000009
 20
-295.0
 10
-15.0000000000000018
 20
-295.0
 10
-15.0000000000000036
 20
-305.0
 10
-0.0000000000000028
 20
-305.0
  0
LWPOLYLINE
  5
77
100
AcDbEntity
  8
0
 62
256
370
-1
 48
1.0
  6
ByLayer
100
AcDbPolyline
 90
4
 70
1
 10
15.0
 20
5.9780289868130154
 10
54.0
 20
5.9780289868130154
 10
54.0
 20
-6.0219710131869846
 10
15.0
 20
-6.0219710131869846
  0
LWPOLYLINE
  5
78
100
AcDbEntity
  8
0
 62
256
370
-1
 48
1.0
  6
ByLayer
100
AcDbPolyline
 90
4
 70
1
 10
-15.0000000000000018
 20
-294.0
 10
-54.0
 20
-294.0
 10
-54.0
 20
-306.0
 10
-15.0000000000000089
 20
-306.0
  0
LWPOLYLINE
  5
79
100
AcDbEntity
  8
0
 62
256
370
-1
 48
1.0
  6
ByLayer
100
AcDbPolyline
 90
4
 70
1
 10
54.0
 20
24.978028986813019
 10
29.0
 20
24.978028986813019
 10
29.0
 20
-27.021971013186981
 10
54.0
 20
-27.021971013186981
  0
LWPOLYLINE
  5
7A
100
AcDbEntity
  8
0
 62
256
370
-1
 48
1.0
  6
ByLayer
100
AcDbPolyline
 90
4
 70
1
 10
-54.0
 20
-275.0
 10
-28.9999999999999964
 20
-275.0
 10
-29.0000000000000178
 20
-327.0
 10
-54.0
 20
-327.0
  0
LWPOLYLINE
  5
7B
100
AcDbEntity
  8
0
 62
256
370
-1
 48
1.0
  6
ByLayer
100
AcDbPolyline
 90
4
 70
1
 10
29.0
 20
34.9780289868130225
 10
19.0
 20
34.9780289868130225
 10
19.0
 20
-45.0219710131869775
 10
29.0
 20
-45.0219710131869775
  0
LWPOLYLINE
  5
7C
100
AcDbEntity
  8
0
 62
256
370
-1
 48
1.0
  6
ByLayer
100
AcDbPolyline
 90
4
 70
1
 10
-28.9999999999999609
 20
-264.9999999999999432
 10
-18.9999999999999929
 20
-265.0
 10
-18.9999999999999964
 20
-345.0
 10
-28.9999999999999858
 20
-345.0
  0
TEXT
  5
7D
100
AcDbEntity
  8
text
 62
256
370
-1
 48
1.0
  6
ByLayer
100
AcDbText
 10
11.0
 20
5.9780289868130154
 30
0.0
 40
8.0
  1
ballscrew
 50
90.0
 41
1.0
  7
textstyle3
 71
0
 72
0
 11
11.0
 21
5.9780289868130154
 31
0.0
100
AcDbText
 73
1
  0
MTEXT
  5
7E
100
AcDbEntity
  8
text
 62
256
370
-1
 48
1.0
  6
ByLayer
100
AcDbMText
 10
0.0
 20
-294.0
 30
0.0
 40
8.0
 41
0.0
 71
7
 72
1
  1
ballscrew
  7
textstyle7
 50
90.0
 73
2
 44
1.0
  0
TEXT
  5
7F
100
AcDbEntity
  8
text
 62
256
370
-1
 48
1.0
  6
ByLayer
100
AcDbText
 10
29.0
 20
36.9780289868130225
 30
0.0
 40
8.0
  1
frame-block
 50
90.0
 41
1.0
  7
textstyle2
 71
0
 72
0
 11
29.0
 21
36.9780289868130225
 31
0.0
100
AcDbText
 73
1
  0
TEXT
  5
80
100
AcDbEntity
  8
text
 62
256
370
-1
 48
1.0
  6
ByLayer
100
AcDbText
 10
-19.0
 20
-263.0
 30
0.0
 40
8.0
  1
frame-block
 50
90.0
 41
1.0
  7
textstyle6
 71
0
 72
0
 11
-19.0
 21
-263.0
 31
0.0
100
AcDbText
 73
1
  0
TEXT
  5
81
100
AcDbEntity
  8
text
 62
256
370
-1
 48
1.0
  6
ByLayer
100
AcDbText
 10
54.0
 20
27.978028986813019
 30
0.0
 40
8.0
  1
BK12
 50
90.0
 41
1.0
  7
textstyle5
 71
0
 72
0
 11
54.0
 21
27.978028986813019
 31
0.0
100
AcDbText
 73
1
  0
TEXT
  5
82
100
AcDbEntity
  8
text
 62
256
370
-1
 48
1.0
  6
ByLayer
100
AcDbText
 10
-31.0
 20
-273.0
 30
0.0
 40
8.0
  1
BK12
 50
90.0
 41
1.0
  7
textstyle9
 71
0
 72
0
 11
-31.0
 21
-273.0
 31
0.0
100
AcDbText
 73
1
  0
TEXT
  5
83
100
AcDbEntity
  8
text
 62
256
370
-1
 48
1.0
  6
ByLayer
100
AcDbText
 10
390.0
 20
-30.0
 30
0.0
 40
8.0
  1
ballscrew
 50
0.0
 41
1.0
  7
textstyle4
 71
0
 72
0
 11
390.0
 21
-30.0
 31
0.0
100
AcDbText
 73
3
  0
TEXT
  5
84
100
AcDbEntity
  8
text
 62
256
370
-1
 48
1.0
  6
ByLayer
100
AcDbText
 10
-360.0
 20
-330.0
 30
0.0
 40
8.0
  1
ballscrew
 50
0.0
 41
1.0
  7
textstyle8
 71
0
 72
0
 11
-360.0
 21
-330.0
 31
0.0
100
AcDbText
 73
3
  0
LWPOLYLINE
  5
85
100
AcDbEntity
  8
0
 62
256
370
-1
 48
1.0
  6
ByLayer
100
AcDbPolyline
 90
4
 70
1
 10
54.0
 20
7.9780289868130154
 10
789.0
 20
8.0
 10
789.0
 20
-8.0
 10
54.0
 20
-8.0219710131869846
  0
LWPOLYLINE
  5
86
100
AcDbEntity
  8
0
 62
256
370
-1
 48
1.0
  6
ByLayer
100
AcDbPolyline
 90
4
 70
1
 10
-54.0
 20
-292.0
 10
-689.0
 20
-292.0000000000010232
 10
-689.0
 20
-307.9999999999990337
 10
-54.0000000000000071
 20
-308.0
  0
LWPOLYLINE
  5
87
100
AcDbEntity
  8
0
 62
256
370
-1
 48
1.0
  6
ByLayer
100
AcDbPolyline
 90
4
 70
1
 10
789.0
 20
5.0
 10
800.0
 20
5.0
 10
800.0
 20
-5.0
 10
789.0
 20
-5.0
  0
LWPOLYLINE
  5
88
100
AcDbEntity
  8
0
 62
256
370
-1
 48
1.0
  6
ByLayer
100
AcDbPolyline
 90
4
 70
1
 10
-689.0
 20
-294.9999999999980673
 10
-700.0
 20
-295.0000000000121076
 10
-700.0
 20
-305.0000000000011369
 10
-689.0
 20
-305.0000000000019327
  0
LWPOLYLINE
  5
89
100
AcDbEntity
  8
0
 62
256
370
-1
 48
1.0
  6
ByLayer
100
AcDbPolyline
 90
4
 70
1
 10
805.0
 20
27.978028986813019
 10
785.0
 20
27.978028986813019
 10
785.0
 20
-32.0219710131869775
 10
805.0
 20
-32.0219710131869775
  0
LWPOLYLINE
  5
8A
100
AcDbEntity
  8
0
 62
256
370
-1
 48
1.0
  6
ByLayer
100
AcDbPolyline
 90
4
 70
1
 10
-705.0
 20
-272.0219710131901252
 10
-685.0
 20
-272.0219710131906368
 10
-685.0
 20
-332.0219710131910347
 10
-705.0
 20
-332.0219710131927968
  0
LWPOLYLINE
  5
8B
100
AcDbEntity
  8
0
 62
256
370
-1
 48
1.0
  6
ByLayer
100
AcDbPolyline
 90
4
 70
1
 10
785.0
 20
57.9780289868130225
 10
775.0
 20
57.9780289868130225
 10
775.0
 20
-62.0219710131869775
 10
785.0
 20
-62.0219710131869775
  0
LWPOLYLINE
  5
8C
100
AcDbEntity
  8
0
 62
256
370
-1
 48
1.0
  6
ByLayer
100
AcDbPolyline
 90
4
 70
1
 10
-715.0
 20
-239.9999999999994316
 10
-705.0
 20
-239.9999999999992895
 10
-705.0
 20
-360.000000000000739
 10
-715.0
 20
-359.9999999999998295
  0
TEXT
  5
8D
100
AcDbEntity
  8
text
 62
256
370
-1
 48
1.0
  6
ByLayer
100
AcDbText
 10
785.0
 20
60.0
 30
0.0
 40
8.0
  1
frame-back
 50
90.0
 41
1.0
  7
textstyle16
 71
0
 72
0
 11
785.0
 21
60.0
 31
0.0
100
AcDbText
 73
1
  0
TEXT
  5
8E
100
AcDbEntity
  8
text
 62
256
370
-1
 48
1.0
  6
ByLayer
100
AcDbText
 10
-705.0
 20
-239.0
 30
0.0
 40
8.0
  1
side-left
 50
90.0
 41
1.0
  7
textstyle11
 71
0
 72
0
 11
-705.0
 21
-239.0
 31
0.0
100
AcDbText
 73
1
  0
TEXT
  5
8F
100
AcDbEntity
  8
text
 62
256
370
-1
 48
1.0
  6
ByLayer
100
AcDbText
 10
805.0
 20
30.0
 30
0.0
 40
8.0
  1
BF12
 50
90.0
 41
1.0
  7
textstyle15
 71
0
 72
0
 11
805.0
 21
30.0
 31
0.0
100
AcDbText
 73
1
  0
TEXT
  5
90
100
AcDbEntity
  8
text
 62
256
370
-1
 48
1.0
  6
ByLayer
100
AcDbText
 10
-685.0000000000001137
 20
-270.9999999999997158
 30
0.0
 40
8.0
  1
BF12
 50
90.0
 41
1.0
  7
textstyle10
 71
0
 72
0
 11
-685.0000000000001137
 21
-270.9999999999997158
 31
0.0
100
AcDbText
 73
1
  0
DIMENSION
  5
91
100
AcDbEntity
  8
text
 62
256
370
-1
 48
1.0
  6
ByLayer
100
AcDbDimension
 10
15.0
 20
-16.0
 30
0.0
 11
7.5
 21
-13.375
 31
0.0
 70
0
 71
8
 72
1
 74
0
 75
0
 41
1.0
 42
0.0
  1

  3
Standard
100
AcDbAlignedDimension
 13
0.0
 23
-5.0
 33
0.0
 14
15.0
 24
-5.0
 34
0.0
 50
0.0
100
AcDbRotatedDimension
1001
ACAD
1000
DSTYLE
1002
{
1070
144
1040
1.0
1070
40
1040
1.0
1002
}
  0
DIMENSION
  5
92
100
AcDbEntity
  8
text
 62
256
370
-1
 48
1.0
  6
ByLayer
100
AcDbDimension
 10
-15.0000000000000018
 20
-315.9780289868130012
 30
0.0
 11
-7.5000000000000009
 21
-313.3530289868130012
 31
0.0
 70
0
 71
8
 72
1
 74
0
 75
0
 41
1.0
 42
0.0
  1

  3
Standard
100
AcDbAlignedDimension
 13
-0.0000000000000028
 23
-304.9780289868130012
 33
0.0
 14
-14.9999999999999982
 24
-304.9780289868130012
 34
0.0
 50
180.0
100
AcDbRotatedDimension
1001
ACAD
1000
DSTYLE
1002
{
1070
144
1040
1.0
1070
40
1040
1.0
1002
}
  0
DIMENSION
  5
93
100
AcDbEntity
  8
text
 62
256
370
-1
 48
1.0
  6
ByLayer
100
AcDbDimension
 10
54.0
 20
-16.0
 30
0.0
 11
34.5
 21
-13.375
 31
0.0
 70
0
 71
8
 72
1
 74
0
 75
0
 41
1.0
 42
0.0
  1

  3
Standard
100
AcDbAlignedDimension
 13
15.0
 23
-5.0
 33
0.0
 14
54.0
 24
-5.0
 34
0.0
 50
0.0
100
AcDbRotatedDimension
1001
ACAD
1000
DSTYLE
1002
{
1070
144
1040
1.0
1070
40
1040
1.0
1002
}
  0
DIMENSION
  5
94
100
AcDbEntity
  8
text
 62
256
370
-1
 48
1.0
  6
ByLayer
100
AcDbDimension
 10
-54.0
 20
-315.9780289868130012
 30
0.0
 11
-34.5
 21
-313.3530289868130012
 31
0.0
 70
0
 71
8
 72
1
 74
0
 75
0
 41
1.0
 42
0.0
  1

  3
Standard
100
AcDbAlignedDimension
 13
-14.9999999999999982
 23
-304.9780289868130012
 33
0.0
 14
-54.0
 24
-304.9780289868130012
 34
0.0
 50
180.0
100
AcDbRotatedDimension
1001
ACAD
1000
DSTYLE
1002
{
1070
144
1040
1.0
1070
40
1040
1.0
1002
}
  0
DIMENSION
  5
95
100
AcDbEntity
  8
text
 62
256
370
-1
 48
1.0
  6
ByLayer
100
AcDbDimension
 10
800.0
 20
-23.0
 30
0.0
 11
400.0
 21
-20.375
 31
0.0
 70
0
 71
8
 72
1
 74
0
 75
0
 41
1.0
 42
0.0
  1

  3
Standard
100
AcDbAlignedDimension
 13
0.0
 23
-5.0
 33
0.0
 14
800.0
 24
-8.0
 34
0.0
 50
0.0
100
AcDbRotatedDimension
1001
ACAD
1000
DSTYLE
1002
{
1070
144
1040
1.0
1070
40
1040
1.0
1002
}
  0
DIMENSION
  5
96
100
AcDbEntity
  8
text
 62
256
370
-1
 48
1.0
  6
ByLayer
100
AcDbDimension
 10
-0.0000000000000028
 20
-322.9780289868152181
 30
0.0
 11
-349.9999999999999432
 21
-320.3530289868152181
 31
0.0
 70
0
 71
8
 72
1
 74
0
 75
0
 41
1.0
 42
0.0
  1

  3
Standard
100
AcDbAlignedDimension
 13
-0.0000000000000028
 23
-304.9780289868130012
 33
0.0
 14
-700.0
 24
-308.0
 34
0.0
 50
180.0
100
AcDbRotatedDimension
1001
ACAD
1000
DSTYLE
1002
{
1070
144
1040
1.0
1070
40
1040
1.0
1002
}
  0
LWPOLYLINE
  5
97
100
AcDbEntity
  8
0
 62
256
370
-1
 48
1.0
  6
ByLayer
100
AcDbPolyline
 90
4
 70
1
 10
-21.0
 20
-65.0219710131869846
 10
-31.0
 20
-65.0219710131869846
 10
-31.0
 20
34.9780289868130225
 10
-21.0
 20
34.9780289868130225
  0
LWPOLYLINE
  5
98
100
AcDbEntity
  8
0
 62
256
370
-1
 48
1.0
  6
ByLayer
100
AcDbPolyline
 90
4
 70
1
 10
10.9999999999999822
 20
-365.0
 10
21.0000000000000249
 20
-365.0
 10
21.0000000000000142
 20
-265.0
 10
11.0000000000000213
 20
-265.0
  0
DIMENSION
  5
99
100
AcDbEntity
  8
text
 62
256
370
-1
 48
1.0
  6
ByLayer
100
AcDbDimension
 10
-10.0
 20
-16.0
 30
0.0
 11
-20.5
 21
-13.375
 31
0.0
 70
0
 71
8
 72
1
 74
0
 75
0
 41
1.0
 42
0.0
  1

  3
Standard
100
AcDbAlignedDimension
 13
-31.0
 23
-5.0
 33
0.0
 14
-10.0
 24
-5.0
 34
0.0
 50
0.0
100
AcDbRotatedDimension
1001
ACAD
1000
DSTYLE
1002
{
1070
144
1040
1.0
1070
40
1040
1.0
1002
}
  0
DIMENSION
  5
9A
100
AcDbEntity
  8
text
 62
256
370
-1
 48
1.0
  6
ByLayer
100
AcDbDimension
 10
30.9999999999999361
 20
-315.9780289868130581
 30
0.0
 11
20.5000000000000071
 21
-313.3530289868130581
 31
0.0
 70
0
 71
8
 72
1
 74
0
 75
0
 41
1.0
 42
0.0
  1

  3
Standard
100
AcDbAlignedDimension
 13
31.0
 23
-304.9999999999999432
 33
0.0
 14
10.0000000000000178
 24
-305.0
 34
0.0
 50
180.0
100
AcDbRotatedDimension
1001
ACAD
1000
DSTYLE
1002
{
1070
144
1040
1.0
1070
40
1040
1.0
1002
}
  0
TEXT
  5
9B
100
AcDbEntity
  8
text
 62
256
370
-1
 48
1.0
  6
ByLayer
100
AcDbText
 10
-21.0
 20
35.9780289868130225
 30
0.0
 40
8.0
  1
frame-back-plate
 50
90.0
 41
1.0
  7
textstyle17
 71
0
 72
0
 11
-21.0
 21
35.9780289868130225
 31
0.0
100
AcDbText
 73
1
  0
TEXT
  5
9C
100
AcDbEntity
  8
text
 62
256
370
-1
 48
1.0
  6
ByLayer
100
AcDbText
 10
20.9999999999999893
 20
-263.0
 30
0.0
 40
8.0
  1
side-right
 50
90.0
 41
1.0
  7
textstyle12
 71
0
 72
0
 11
20.9999999999999893
 21
-263.0
 31
0.0
100
AcDbText
 73
1
  0
TEXT
  5
9D
100
AcDbEntity
  8
text
 62
256
370
-1
 48
1.0
  6
ByLayer
100
AcDbText
 10
31.0000000000000497
 20
-268.0
 30
0.0
 40
8.0
  1
spacer
 50
90.0
 41
1.0
  7
textstyle1
 71
0
 72
0
 11
31.0000000000000497
 21
-268.0
 31
0.0
100
AcDbText
 73
1
  0
TEXT
  5
9E
100
AcDbEntity
  8
text
 62
256
370
-1
 48
1.0
  6
ByLayer
100
AcDbText
 10
-10.0
 20
6.9780289868130154
 30
0.0
 40
8.0
  1
axis
 50
90.0
 41
1.0
  7
textstyle18
 71
0
 72
0
 11
-10.0
 21
6.9780289868130154
 31
0.0
100
AcDbText
 73
1
  0
TEXT
  5
9F
100
AcDbEntity
  8
text
 62
256
370
-1
 48
1.0
  6
ByLayer
100
AcDbText
 10
20.0
 20
-294.0
 30
0.0
 40
8.0
  1
axis
 50
90.0
 41
1.0
  7
textstyle13
 71
0
 72
0
 11
20.0
 21
-294.0
 31
0.0
100
AcDbText
 73
1
  0
LWPOLYLINE
  5
A0
100
AcDbEntity
  8
0
 62
256
370
-1
 48
1.0
  6
ByLayer
100
AcDbPolyline
 90
4
 70
1
 10
-31.0
 20
4.9340869604390463
 10
-11.0
 20
5.0
 10
-11.0
 20
-5.0
 10
-31.0
 20
-5.0219710131869846
  0
LWPOLYLINE
  5
A1
100
AcDbEntity
  8
0
 62
256
370
-1
 48
1.0
  6
ByLayer
100
AcDbPolyline
 90
4
 70
1
 10
31.0
 20
-295.0
 10
11.0
 20
-295.0
 10
11.0
 20
-305.0
 10
31.0
 20
-305.0
  0
LWPOLYLINE
  5
A2
100
AcDbEntity
  8
text
 62
256
370
-1
 48
1.0
  6
ByLayer
100
AcDbPolyline
 90
4
 70
1
 10
-11.0
 20
5.0
 10
-9.0
 20
5.0
 10
-9.0
 20
-5.0
 10
-11.0
 20
-5.0
  0
LWPOLYLINE
  5
A3
100
AcDbEntity
  8
text
 62
256
370
-1
 48
1.0
  6
ByLayer
100
AcDbPolyline
 90
4
 70
1
 10
11.0
 20
-295.0
 10
9.0
 20
-295.0
 10
9.0
 20
-305.0
 10
11.0
 20
-305.0
  0
DIMENSION
  5
A4
100
AcDbEntity
  8
text
 62
256
370
-1
 48
1.0
  6
ByLayer
100
AcDbDimension
 10
-0.0000000000000015
 20
-30.0
 30
0.0
 11
-5.0
 21
-27.375
 31
0.0
 70
0
 71
8
 72
1
 74
0
 75
0
 41
1.0
 42
0.0
  1

  3
Standard
100
AcDbAlignedDimension
 13
-10.0
 23
-6.0
 33
0.0
 14
0.0
 24
-5.0
 34
0.0
 50
0.0
100
AcDbRotatedDimension
1001
ACAD
1000
DSTYLE
1002
{
1070
144
1040
1.0
1070
40
1040
1.0
1002
}
  0
DIMENSION
  5
A5
100
AcDbEntity
  8
text
 62
256
370
-1
 48
1.0
  6
ByLayer
100
AcDbDimension
 10
9.9999999999999751
 20
-329.9780289868130012
 30
0.0
 11
4.9999999999998508
 21
-327.3530289868130012
 31
0.0
 70
0
 71
8
 72
1
 74
0
 75
0
 41
1.0
 42
0.0
  1

  3
Standard
100
AcDbAlignedDimension
 13
9.999999999999833
 23
-305.9780289868130012
 33
0.0
 14
-0.0000000000001315
 24
-306.0
 34
0.0
 50
180.0
100
AcDbRotatedDimension
1001
ACAD
1000
DSTYLE
1002
{
1070
144
1040
1.0
1070
40
1040
1.0
1002
}
  0
DIMENSION
  5
A6
100
AcDbEntity
  8
text
 62
256
370
-1
 48
1.0
  6
ByLayer
100
AcDbDimension
 10
23.0
 20
-55.0
 30
0.0
 11
-0.9999999999999999
 21
-52.375
 31
0.0
 70
0
 71
8
 72
1
 74
0
 75
0
 41
1.0
 42
0.0
  1

  3
Standard
100
AcDbAlignedDimension
 13
-21.0
 23
-35.0
 33
0.0
 14
19.0
 24
-35.0
 34
0.0
 50
0.0
100
AcDbRotatedDimension
1001
ACAD
1000
DSTYLE
1002
{
1070
144
1040
1.0
1070
40
1040
1.0
1002
}
  0
DIMENSION
  5
A7
100
AcDbEntity
  8
text
 62
256
370
-1
 48
1.0
  6
ByLayer
100
AcDbDimension
 10
11.0
 20
-354.9780289868130012
 30
0.0
 11
-3.9999999999999893
 21
-352.3530289868130012
 31
0.0
 70
0
 71
8
 72
1
 74
0
 75
0
 41
1.0
 42
0.0
  1

  3
Standard
100
AcDbAlignedDimension
 13
11.0
 23
-331.0
 33
0.0
 14
-18.9999999999999787
 24
-334.9780289868130012
 34
0.0
 50
180.0
100
AcDbRotatedDimension
1001
ACAD
1000
DSTYLE
1002
{
1070
144
1040
1.0
1070
40
1040
1.0
1002
}
  0
LWPOLYLINE
  5
A8
100
AcDbEntity
  8
text
 62
256
370
-1
 48
1.0
  6
ByLayer
100
AcDbPolyline
 90
4
 70
1
 10
15.0
 20
6.0
 10
29.0
 20
6.0
 10
29.0
 20
5.0
 10
15.0
 20
5.0
  0
LWPOLYLINE
  5
A9
100
AcDbEntity
  8
text
 62
256
370
-1
 48
1.0
  6
ByLayer
100
AcDbPolyline
 90
4
 70
1
 10
-15.0000000000000018
 20
-293.9780289868130012
 10
-29.0
 20
-293.9780289868130012
 10
-29.0000000000000036
 20
-294.9780289868130012
 10
-15.0000000000000018
 20
-294.9780289868130012
  0
LWPOLYLINE
  5
AA
100
AcDbEntity
  8
text
 62
256
370
-1
 48
1.0
  6
ByLayer
100
AcDbPolyline
 90
4
 70
1
 10
15.0
 20
-5.0
 10
29.0
 20
-5.0
 10
29.0
 20
-6.0
 10
15.0
 20
-6.0
  0
LWPOLYLINE
  5
AB
100
AcDbEntity
  8
text
 62
256
370
-1
 48
1.0
  6
ByLayer
100
AcDbPolyline
 90
4
 70
1
 10
-14.9999999999999982
 20
-304.9780289868130012
 10
-29.0000000000000071
 20
-304.9780289868130012
 10
-28.9999999999999964
 20
-305.9780289868130012
 10
-15.0000000000000071
 20
-305.9780289868130012
  0
LWPOLYLINE
  5
AC
100
AcDbEntity
  8
text
 62
256
370
-1
 48
1.0
  6
ByLayer
100
AcDbPolyline
 90
4
 70
1
 10
791.0
 20
20.0
 10
799.0
 20
20.0
 10
799.0
 20
-20.0
 10
791.0
 20
-20.0
  0
LWPOLYLINE
  5
AD
100
AcDbEntity
  8
text
 62
256
370
-1
 48
1.0
  6
ByLayer
100
AcDbPolyline
 90
4
 70
1
 10
-691.0
 20
-279.9999999999960778
 10
-699.0
 20
-279.9999999999952252
 10
-699.0
 20
-320.000000000004718
 10
-691.0
 20
-320.0000000000039222
  0
LWPOLYLINE
  5
AE
100
AcDbEntity
  8
text
 62
256
370
-1
 48
1.0
  6
ByLayer
100
AcDbPolyline
 90
4
 70
1
 10
-31.0
 20
16.0
 10
-90.0
 20
16.0
 10
-90.0
 20
-24.0
 10
-31.0
 20
-24.0
  0
LWPOLYLINE
  5
AF
100
AcDbEntity
  8
text
 62
256
370
-1
 48
1.0
  6
ByLayer
100
AcDbPolyline
 90
4
 70
1
 10
31.0
 20
-280.0
 10
91.0
 20
-280.0
 10
91.0000000000000142
 20
-320.0000000000000568
 10
31.0
 20
-320.0
  0
TEXT
  5
B0
100
AcDbEntity
  8
text
 62
256
370
-1
 48
1.0
  6
ByLayer
100
AcDbText
 10
-32.0
 20
17.0
 30
0.0
 40
8.0
  1
stepper
 50
90.0
 41
1.0
  7
textstyle19
 71
0
 72
0
 11
-32.0
 21
17.0
 31
0.0
100
AcDbText
 73
1
  0
TEXT
  5
B1
100
AcDbEntity
  8
text
 62
256
370
-1
 48
1.0
  6
ByLayer
100
AcDbText
 10
48.5877564796826746
 20
-277.3769075296195297
 30
0.0
 40
8.0
  1
stepper
 50
90.0
 41
1.0
  7
textstyle14
 71
0
 72
0
 11
48.5877564796826746
 21
-277.3769075296195297
 31
0.0
100
AcDbText
 73
1
  0
DIMENSION
  5
B2
100
AcDbEntity
  8
text
 62
256
370
-1
 48
1.0
  6
ByLayer
100
AcDbDimension
 10
29.0
 20
14.0
 30
0.0
 11
22.0
 21
16.625
 31
0.0
 70
0
 71
8
 72
1
 74
0
 75
0
 41
1.0
 42
0.0
  1

  3
Standard
100
AcDbAlignedDimension
 13
15.0
 23
6.0
 33
0.0
 14
29.0
 24
6.0
 34
0.0
 50
0.0
100
AcDbRotatedDimension
1001
ACAD
1000
DSTYLE
1002
{
1070
144
1040
1.0
1070
40
1040
1.0
1002
}
  0
DIMENSION
  5
B3
100
AcDbEntity
  8
text
 62
256
370
-1
 48
1.0
  6
ByLayer
100
AcDbDimension
 10
-28.9999999999999964
 20
-285.9780289868130012
 30
0.0
 11
-22.0
 21
-283.3530289868130012
 31
0.0
 70
0
 71
8
 72
1
 74
0
 75
0
 41
1.0
 42
0.0
  1

  3
Standard
100
AcDbAlignedDimension
 13
-15.0000000000000018
 23
-293.9780289868130012
 33
0.0
 14
-29.0
 24
-293.9780289868130012
 34
0.0
 50
180.0
100
AcDbRotatedDimension
1001
ACAD
1000
DSTYLE
1002
{
1070
144
1040
1.0
1070
40
1040
1.0
1002
}
  0
DIMENSION
  5
B4
100
AcDbEntity
  8
text
 62
256
370
-1
 48
1.0
  6
ByLayer
100
AcDbDimension
 10
54.0
 20
14.0
 30
0.0
 11
41.5
 21
16.625
 31
0.0
 70
0
 71
8
 72
1
 74
0
 75
0
 41
1.0
 42
0.0
  1

  3
Standard
100
AcDbAlignedDimension
 13
29.0
 23
6.0
 33
0.0
 14
54.0
 24
6.0
 34
0.0
 50
0.0
100
AcDbRotatedDimension
1001
ACAD
1000
DSTYLE
1002
{
1070
144
1040
1.0
1070
40
1040
1.0
1002
}
  0
DIMENSION
  5
B5
100
AcDbEntity
  8
text
 62
256
370
-1
 48
1.0
  6
ByLayer
100
AcDbDimension
 10
-54.0
 20
-285.9780289868129444
 30
0.0
 11
-41.5
 21
-283.3530289868129444
 31
0.0
 70
0
 71
8
 72
1
 74
0
 75
0
 41
1.0
 42
0.0
  1

  3
Standard
100
AcDbAlignedDimension
 13
-29.0
 23
-293.9780289868130012
 33
0.0
 14
-54.0
 24
-293.9780289868130012
 34
0.0
 50
180.0
100
AcDbRotatedDimension
1001
ACAD
1000
DSTYLE
1002
{
1070
144
1040
1.0
1070
40
1040
1.0
1002
}
  0
DIMENSION
  5
B6
100
AcDbEntity
  8
text
 62
256
370
-1
 48
1.0
  6
ByLayer
100
AcDbDimension
 10
-21.0
 20
-37.0
 30
0.0
 11
-26.0
 21
-34.375
 31
0.0
 70
0
 71
8
 72
1
 74
0
 75
0
 41
1.0
 42
0.0
  1

  3
Standard
100
AcDbAlignedDimension
 13
-31.0
 23
-38.0
 33
0.0
 14
-21.0
 24
-38.0
 34
0.0
 50
0.0
100
AcDbRotatedDimension
1001
ACAD
1000
DSTYLE
1002
{
1070
144
1040
1.0
1070
40
1040
1.0
1002
}
  0
DIMENSION
  5
B7
100
AcDbEntity
  8
text
 62
256
370
-1
 48
1.0
  6
ByLayer
100
AcDbDimension
 10
11.0000000000000533
 20
-336.9780289868130012
 30
0.0
 11
15.9999999999998828
 21
-334.3530289868130012
 31
0.0
 70
0
 71
8
 72
1
 74
0
 75
0
 41
1.0
 42
0.0
  1

  3
Standard
100
AcDbAlignedDimension
 13
20.9999999999998153
 23
-337.9780289868130012
 33
0.0
 14
10.9999999999999503
 24
-337.9780289868130012
 34
0.0
 50
180.0
100
AcDbRotatedDimension
1001
ACAD
1000
DSTYLE
1002
{
1070
144
1040
1.0
1070
40
1040
1.0
1002
}
  0
DIMENSION
  5
B8
100
AcDbEntity
  8
text
 62
256
370
-1
 48
1.0
  6
ByLayer
100
AcDbDimension
 10
29.0
 20
-37.0
 30
0.0
 11
24.0
 21
-34.375
 31
0.0
 70
0
 71
8
 72
1
 74
0
 75
0
 41
1.0
 42
0.0
  1

  3
Standard
100
AcDbAlignedDimension
 13
19.0
 23
-37.0
 33
0.0
 14
29.0
 24
-37.0
 34
0.0
 50
0.0
100
AcDbRotatedDimension
1001
ACAD
1000
DSTYLE
1002
{
1070
144
1040
1.0
1070
40
1040
1.0
1002
}
  0
DIMENSION
  5
B9
100
AcDbEntity
  8
text
 62
256
370
-1
 48
1.0
  6
ByLayer
100
AcDbDimension
 10
-29.0000000000000142
 20
-336.9780289868130012
 30
0.0
 11
-24.0000000000000036
 21
-334.3530289868130012
 31
0.0
 70
0
 71
8
 72
1
 74
0
 75
0
 41
1.0
 42
0.0
  1

  3
Standard
100
AcDbAlignedDimension
 13
-18.9999999999999929
 23
-336.9780289868130012
 33
0.0
 14
-29.0000000000000142
 24
-336.9780289868130012
 34
0.0
 50
180.0
100
AcDbRotatedDimension
1001
ACAD
1000
DSTYLE
1002
{
1070
144
1040
1.0
1070
40
1040
1.0
1002
}
  0
TEXT
  5
BA
100
AcDbEntity
  8
0
 62
256
370
-1
 48
1.0
  6
ByLayer
100
AcDbText
 10
0.0
 20
0.0
 30
0.0
 40
10.0
  1
Y-extrusion
 50
0.0
 41
1.0
  7
textstyle20
 71
0
 72
1
 11
400.0
 21
170.0
 31
0.0
100
AcDbText
 73
2
  0
TEXT
  5
BB
100
AcDbEntity
  8
0
 62
256
370
-1
 48
1.0
  6
ByLayer
100
AcDbText
 10
-0.0000000000000018
 20
-299.9780289868130012
 30
0.0
 40
10.0
  1
X-extrusion
 50
360.0
 41
1.0
  7
textstyle0
 71
0
 72
1
 11
-350.0
 21
-150.0
 31
0.0
100
AcDbText
 73
2
  0
LINE
  5
BC
100
AcDbEntity
  8
0
 62
256
370
-1
 48
1.0
  6
ByLayer
100
AcDbLine
 10
21.0
 20
-270.0
 30
0.0
 11
31.0
 21
-270.0
 31
0.0
  0
LINE
  5
BD
100
AcDbEntity
  8
0
 62
256
370
-1
 48
1.0
  6
ByLayer
100
AcDbLine
 10
31.0
 20
-270.0
 30
0.0
 11
31.0
 21
-327.0
 31
0.0
  0
LINE
  5
BE
100
AcDbEntity
  8
0
 62
256
370
-1
 48
1.0
  6
ByLayer
100
AcDbLine
 10
31.0
 20
-327.0
 30
0.0
 11
21.0
 21
-327.0
 31
0.0
  0
LINE
  5
BF
100
AcDbEntity
  8
0
 62
256
370
-1
 48
1.0
  6
ByLayer
100
AcDbLine
 10
21.0
 20
-327.0
 30
0.0
 11
21.0
 21
-270.0
 31
0.0
  0
DIMENSION
  5
C0
100
AcDbEntity
  8
0
 62
256
370
-1
 48
1.0
  6
ByLayer
100
AcDbDimension
 10
-21.0
 20
150.0
 30
0.0
 11
377.0
 21
152.625
 31
0.0
 70
0
 71
8
 72
2
 74
0
 75
0
 41
1.0
 42
0.0
  1

  3
Standard
100
AcDbAlignedDimension
 13
-21.0
 23
35.0
 33
0.0
 14
775.0
 24
35.0
 34
0.0
 50
0.0
100
AcDbRotatedDimension
1001
ACAD
1000
DSTYLE
1002
{
1070
144
1040
1.0
1070
40
1040
1.0
1002
}
  0
DIMENSION
  5
C1
100
AcDbEntity
  8
0
 62
256
370
-1
 48
1.0
  6
ByLayer
100
AcDbDimension
 10
-705.0
 20
-170.0
 30
0.0
 11
-347.0
 21
-167.375
 31
0.0
 70
0
 71
8
 72
2
 74
0
 75
0
 41
1.0
 42
0.0
  1

  3
Standard
100
AcDbAlignedDimension
 13
-705.0
 23
-240.0
 33
0.0
 14
11.0
 24
-240.0
 34
0.0
 50
0.0
100
AcDbRotatedDimension
1001
ACAD
1000
DSTYLE
1002
{
1070
144
1040
1.0
1070
40
1040
1.0
1002
}
  0
ENDSEC
  0
SECTION
  2
OBJECTS
  0
DICTIONARY
  5
C
100
AcDbDictionary
280
0
281
1
  3
ACAD_GROUP
350
D
  3
ACAD_LAYOUT
350
1A
  3
ACAD_MLINESTYLE
350
17
  3
ACAD_PLOTSETTINGS
350
19
  3
ACAD_PLOTSTYLENAME
350
E
  3
AcDbVariableDictionary
350
C2
  3
QCAD_OBJECTS
350
C3
  0
DICTIONARY
  5
D
100
AcDbDictionary
280
0
281
1
  0
ACDBDICTIONARYWDFLT
  5
E
100
AcDbDictionary
281
1
  3
Normal
350
F
100
AcDbDictionaryWithDefault
340
F
  0
ACDBPLACEHOLDER
  5
F
  0
DICTIONARY
  5
17
100
AcDbDictionary
280
0
281
1
  3
Standard
350
18
  0
MLINESTYLE
  5
18
100
AcDbMlineStyle
  2
STANDARD
 70
0
  3

 62
256
 51
90.0
 52
90.0
 71
2
 49
0.5
 62
256
  6
BYLAYER
 49
-0.5
 62
256
  6
BYLAYER
  0
DICTIONARY
  5
19
100
AcDbDictionary
280
0
281
1
  0
DICTIONARY
  5
1A
100
AcDbDictionary
281
1
  3
Layout1
350
1E
  3
Layout2
350
26
  3
Model
350
22
  0
LAYOUT
  5
1E
100
AcDbPlotSettings
  1

  2
none_device
  4

  6

 40
0.0
 41
0.0
 42
0.0
 43
0.0
 44
0.0
 45
0.0
 46
0.0
 47
0.0
 48
0.0
 49
0.0
140
0.0
141
0.0
142
1.0
143
1.0
 70
688
 72
0
 73
0
 74
5
  7

 75
16
147
1.0
148
0.0
149
0.0
100
AcDbLayout
  1
Layout1
 70
1
 71
1
 10
0.0
 20
0.0
 11
420.0
 21
297.0
 12
0.0
 22
0.0
 32
0.0
 14
100000000000000000000.0
 24
100000000000000000000.0
 34
100000000000000000000.0
 15
-100000000000000000000.0
 25
-100000000000000000000.0
 35
-100000000000000000000.0
146
0.0
 13
0.0
 23
0.0
 33
0.0
 16
1.0
 26
0.0
 36
0.0
 17
0.0
 27
1.0
 37
0.0
 76
0
330
1B
  0
LAYOUT
  5
22
100
AcDbPlotSettings
  1

  2
none_device
  4

  6

 40
0.0
 41
0.0
 42
0.0
 43
0.0
 44
0.0
 45
0.0
 46
0.0
 47
0.0
 48
0.0
 49
0.0
140
0.0
141
0.0
142
1.0
143
1.0
 70
1712
 72
0
 73
0
 74
0
  7

 75
0
147
1.0
148
0.0
149
0.0
100
AcDbLayout
  1
Model
 70
1
 71
0
 10
0.0
 20
0.0
 11
12.0
 21
9.0
 12
0.0
 22
0.0
 32
0.0
 14
0.0
 24
0.0
 34
0.0
 15
0.0
 25
0.0
 35
0.0
146
0.0
 13
0.0
 23
0.0
 33
0.0
 16
1.0
 26
0.0
 36
0.0
 17
0.0
 27
1.0
 37
0.0
 76
0
330
1F
  0
LAYOUT
  5
26
100
AcDbPlotSettings
  1

  2
none_device
  4

  6

 40
0.0
 41
0.0
 42
0.0
 43
0.0
 44
0.0
 45
0.0
 46
0.0
 47
0.0
 48
0.0
 49
0.0
140
0.0
141
0.0
142
1.0
143
1.0
 70
688
 72
0
 73
0
 74
5
  7

 75
16
147
1.0
148
0.0
149
0.0
100
AcDbLayout
  1
Layout2
 70
1
 71
2
 10
0.0
 20
0.0
 11
12.0
 21
9.0
 12
0.0
 22
0.0
 32
0.0
 14
0.0
 24
0.0
 34
0.0
 15
0.0
 25
0.0
 35
0.0
146
0.0
 13
0.0
 23
0.0
 33
0.0
 16
1.0
 26
0.0
 36
0.0
 17
0.0
 27
1.0
 37
0.0
 76
0
330
23
  0
DICTIONARY
  5
C2
100
AcDbDictionary
281
1
  3
DIMASSOC
350
C5
  3
HIDETEXT
350
C4
  0
DICTIONARYVAR
  5
C4
100
DictionaryVariables
280
0
  1
2
  0
DICTIONARYVAR
  5
C5
100
DictionaryVariables
280
0
  1
1
  0
DICTIONARY
  5
C3
100
AcDbDictionary
281
1
  3
ColorSettings/BackgroundColor
350
C6
  3
ColorSettings/ColorMode
350
C7
  3
DimensionSettings/AngularFormat
350
C8
  3
DimensionSettings/AngularPrecision
350
C9
  3
DimensionSettings/DecimalPoint
350
CA
  3
DimensionSettings/DimensionFont
350
CB
  3
DimensionSettings/KeepProportions
350
CC
  3
DimensionSettings/LinearFormat
350
CD
  3
DimensionSettings/LinearPrecision
350
CE
  3
Grid/DisplayGrid00
350
CF
  3
Grid/DisplayGrid01
350
D0
  3
Grid/DisplayGrid02
350
D1
  3
Grid/DisplayGrid03
350
D2
  3
Grid/GridSpacingX00
350
D3
  3
Grid/GridSpacingX01
350
D4
  3
Grid/GridSpacingX02
350
D5
  3
Grid/GridSpacingX03
350
D6
  3
Grid/GridSpacingY00
350
D7
  3
Grid/GridSpacingY01
350
D8
  3
Grid/GridSpacingY02
350
D9
  3
Grid/GridSpacingY03
350
DA
  3
Grid/IsometricGrid00
350
DB
  3
Grid/IsometricGrid01
350
DC
  3
Grid/IsometricGrid02
350
DD
  3
Grid/IsometricGrid03
350
DE
  3
Grid/IsometricProjection00
350
DF
  3
Grid/IsometricProjection01
350
E0
  3
Grid/IsometricProjection02
350
E1
  3
Grid/IsometricProjection03
350
E2
  3
Grid/MetaGridSpacingX00
350
E3
  3
Grid/MetaGridSpacingX01
350
E4
  3
Grid/MetaGridSpacingX02
350
E5
  3
Grid/MetaGridSpacingX03
350
E6
  3
Grid/MetaGridSpacingY00
350
E7
  3
Grid/MetaGridSpacingY01
350
E8
  3
Grid/MetaGridSpacingY02
350
E9
  3
Grid/MetaGridSpacingY03
350
EA
  3
MultiPageSettings/Columns
350
EB
  3
MultiPageSettings/GlueMarginsBottom
350
EC
  3
MultiPageSettings/GlueMarginsLeft
350
ED
  3
MultiPageSettings/GlueMarginsRight
350
EE
  3
MultiPageSettings/GlueMarginsTop
350
EF
  3
MultiPageSettings/PrintCropMarks
350
F0
  3
MultiPageSettings/Rows
350
F1
  3
PageSettings/OffsetX
350
F2
  3
PageSettings/OffsetY
350
F3
  3
PageSettings/PageOrientation
350
F4
  3
PageSettings/PaperHeight
350
F5
  3
PageSettings/PaperWidth
350
F6
  3
PageSettings/Scale
350
F7
  3
PageSettings/ShowPaperBorders
350
F8
  3
PageTagSettings/EnablePageTags
350
F9
  3
PageTagSettings/TagAlignment
350
FA
  3
PageTagSettings/TagFont
350
FB
  3
PageTagSettings/TagPosition
350
FC
  3
QCADVersion
350
FD
  3
UnitSettings/PaperUnit
350
FE
  3
ViewportCenter
350
FF
  3
ViewportHeight
350
100
  3
ViewportWidth
350
101
  0
XRECORD
  5
C6
330
C3
100
AcDbXrecord
280
1
1000
Weiss
  0
XRECORD
  5
C7
330
C3
100
AcDbXrecord
280
1
1000
FullColor
  0
XRECORD
  5
C8
330
C3
100
AcDbXrecord
280
1
 90
0
  0
XRECORD
  5
C9
330
C3
100
AcDbXrecord
280
1
 90
0
  0
XRECORD
  5
CA
330
C3
100
AcDbXrecord
280
1
 90
44
  0
XRECORD
  5
CB
330
C3
100
AcDbXrecord
280
1
1000
DejaVu Sans
  0
XRECORD
  5
CC
330
C3
100
AcDbXrecord
280
1
290
0
  0
XRECORD
  5
CD
330
C3
100
AcDbXrecord
280
1
 90
2
  0
XRECORD
  5
CE
330
C3
100
AcDbXrecord
280
1
 90
2
  0
XRECORD
  5
CF
330
C3
100
AcDbXrecord
280
1
290
1
  0
XRECORD
  5
D0
330
C3
100
AcDbXrecord
280
1
290
1
  0
XRECORD
  5
D1
330
C3
100
AcDbXrecord
280
1
290
1
  0
XRECORD
  5
D2
330
C3
100
AcDbXrecord
280
1
290
1
  0
XRECORD
  5
D3
330
C3
100
AcDbXrecord
280
1
1000
auto
  0
XRECORD
  5
D4
330
C3
100
AcDbXrecord
280
1
1000
auto
  0
XRECORD
  5
D5
330
C3
100
AcDbXrecord
280
1
1000
auto
  0
XRECORD
  5
D6
330
C3
100
AcDbXrecord
280
1
1000
auto
  0
XRECORD
  5
D7
330
C3
100
AcDbXrecord
280
1
1000
auto
  0
XRECORD
  5
D8
330
C3
100
AcDbXrecord
280
1
1000
auto
  0
XRECORD
  5
D9
330
C3
100
AcDbXrecord
280
1
1000
auto
  0
XRECORD
  5
DA
330
C3
100
AcDbXrecord
280
1
1000
auto
  0
XRECORD
  5
DB
330
C3
100
AcDbXrecord
280
1
290
0
  0
XRECORD
  5
DC
330
C3
100
AcDbXrecord
280
1
290
0
  0
XRECORD
  5
DD
330
C3
100
AcDbXrecord
280
1
290
0
  0
XRECORD
  5
DE
330
C3
100
AcDbXrecord
280
1
290
0
  0
XRECORD
  5
DF
330
C3
100
AcDbXrecord
280
1
 90
65537
  0
XRECORD
  5
E0
330
C3
100
AcDbXrecord
280
1
 90
65537
  0
XRECORD
  5
E1
330
C3
100
AcDbXrecord
280
1
 90
65537
  0
XRECORD
  5
E2
330
C3
100
AcDbXrecord
280
1
 90
65537
  0
XRECORD
  5
E3
330
C3
100
AcDbXrecord
280
1
1000
auto
  0
XRECORD
  5
E4
330
C3
100
AcDbXrecord
280
1
1000
auto
  0
XRECORD
  5
E5
330
C3
100
AcDbXrecord
280
1
1000
auto
  0
XRECORD
  5
E6
330
C3
100
AcDbXrecord
280
1
1000
auto
  0
XRECORD
  5
E7
330
C3
100
AcDbXrecord
280
1
1000
auto
  0
XRECORD
  5
E8
330
C3
100
AcDbXrecord
280
1
1000
auto
  0
XRECORD
  5
E9
330
C3
100
AcDbXrecord
280
1
1000
auto
  0
XRECORD
  5
EA
330
C3
100
AcDbXrecord
280
1
1000
auto
  0
XRECORD
  5
EB
330
C3
100
AcDbXrecord
280
1
 90
1
  0
XRECORD
  5
EC
330
C3
100
AcDbXrecord
280
1
 40
10.0
  0
XRECORD
  5
ED
330
C3
100
AcDbXrecord
280
1
 40
10.0
  0
XRECORD
  5
EE
330
C3
100
AcDbXrecord
280
1
 40
10.0
  0
XRECORD
  5
EF
330
C3
100
AcDbXrecord
280
1
 40
10.0
  0
XRECORD
  5
F0
330
C3
100
AcDbXrecord
280
1
290
0
  0
XRECORD
  5
F1
330
C3
100
AcDbXrecord
280
1
 90
1
  0
XRECORD
  5
F2
330
C3
100
AcDbXrecord
280
1
 40
0.0
  0
XRECORD
  5
F3
330
C3
100
AcDbXrecord
280
1
 40
0.0
  0
XRECORD
  5
F4
330
C3
100
AcDbXrecord
280
1
1000
Portrait
  0
XRECORD
  5
F5
330
C3
100
AcDbXrecord
280
1
 40
297.0
  0
XRECORD
  5
F6
330
C3
100
AcDbXrecord
280
1
 40
210.0
  0
XRECORD
  5
F7
330
C3
100
AcDbXrecord
280
1
1000
1:1
  0
XRECORD
  5
F8
330
C3
100
AcDbXrecord
280
1
290
1
  0
XRECORD
  5
F9
330
C3
100
AcDbXrecord
280
1
290
0
  0
XRECORD
  5
FA
330
C3
100
AcDbXrecord
280
1
1000
Inside
  0
XRECORD
  5
FB
330
C3
100
AcDbXrecord
280
1
1000
Arial,10,-1,5,50,0,0,0,0,0
  0
XRECORD
  5
FC
330
C3
100
AcDbXrecord
280
1
1000
TopLeft
  0
XRECORD
  5
FD
330
C3
100
AcDbXrecord
280
1
1000
3.24.3
  0
XRECORD
  5
FE
330
C3
100
AcDbXrecord
280
1
 90
4
  0
XRECORD
  5
100
330
C3
100
AcDbXrecord
280
1
 40
1059.0747980824526167
  0
XRECORD
  5
101
330
C3
100
AcDbXrecord
280
1
 40
2280.4271861936681489
  0
ENDSEC
  0
EOF
